<?xml version="1.0" standalone="no"?>
<!DOCTYPE svg PUBLIC "-//W3C//DTD SVG 20010904//EN"
 "http://www.w3.org/TR/2001/REC-SVG-20010904/DTD/svg10.dtd">
<svg version="1.0" xmlns="http://www.w3.org/2000/svg"
 width="1024.000000pt" height="220.000000pt" viewBox="0 0 1024.000000 220.000000"
 preserveAspectRatio="xMidYMid meet">

<g transform="translate(0.000000,220.000000) scale(0.100000,-0.100000)"
fill="#000000" stroke="none">
<path d="M5065 1717 c-64 -29 -77 -116 -26 -168 66 -65 171 -20 171 73 0 35
-6 50 -28 71 -34 33 -77 41 -117 24z"/>
<path d="M1425 1410 c-74 -29 -120 -72 -157 -148 -62 -126 -48 -273 37 -385
87 -114 271 -139 374 -51 52 45 65 37 57 -33 -9 -76 -28 -116 -70 -148 -81
-62 -199 -41 -259 46 l-16 21 -70 -27 c-39 -16 -71 -34 -71 -41 0 -29 68 -99
130 -133 63 -35 68 -36 170 -36 95 0 111 3 162 28 69 34 120 90 150 166 21 54
22 69 23 396 l0 340 -72 3 -73 3 0 -30 c0 -43 -17 -47 -53 -13 -63 61 -168 78
-262 42z m219 -145 c77 -37 115 -169 73 -251 -53 -103 -190 -131 -270 -56 -43
40 -59 79 -59 142 0 145 126 226 256 165z"/>
<path d="M6516 1414 c-69 -22 -156 -110 -182 -184 -30 -86 -26 -199 11 -278
55 -122 169 -192 292 -179 56 6 136 45 147 72 3 8 12 15 21 15 12 0 15 -12 14
-52 -1 -89 -32 -146 -95 -178 -76 -39 -167 -20 -221 45 l-31 37 -69 -27 c-37
-15 -69 -29 -71 -30 -9 -8 31 -66 69 -99 70 -64 119 -81 234 -81 83 0 108 4
150 23 68 31 118 82 152 156 l28 61 3 348 3 347 -75 0 -76 0 0 -35 c0 -19 -2
-35 -5 -35 -3 0 -25 16 -50 35 -74 56 -152 68 -249 39z m187 -138 c50 -18 76
-42 98 -91 67 -145 -54 -305 -200 -265 -82 22 -131 89 -131 180 0 87 41 149
117 175 48 18 68 18 116 1z"/>
<path d="M9337 1420 c-96 -25 -173 -88 -216 -179 -22 -48 -26 -69 -26 -151 1
-85 4 -101 30 -153 83 -166 285 -228 461 -142 63 31 108 80 143 155 32 70 36
187 8 267 -24 68 -93 145 -162 178 -60 30 -172 41 -238 25z m161 -154 c15 -8
39 -27 54 -43 98 -104 40 -293 -99 -319 -71 -13 -162 36 -189 103 -22 51 -18
141 9 188 41 73 153 108 225 71z"/>
<path d="M732 1399 c-23 -12 -51 -34 -63 -50 -30 -42 -49 -38 -49 11 l0 40
-70 0 -70 0 0 -455 0 -455 77 0 76 0 -6 185 c-5 176 -5 185 13 185 10 0 21 -8
25 -19 3 -10 27 -30 54 -45 62 -33 163 -36 229 -6 63 28 133 106 161 178 32
83 27 202 -11 277 -31 60 -102 129 -161 156 -58 26 -149 25 -205 -2z m164
-129 c23 -18 55 -56 71 -84 20 -35 16 -151 -7 -196 -37 -73 -128 -112 -207
-91 -88 24 -133 90 -133 196 0 95 35 154 110 186 27 12 147 4 166 -11z"/>
<path d="M3665 1397 c-123 -59 -198 -173 -199 -302 0 -58 5 -81 31 -137 35
-75 89 -132 150 -159 46 -20 129 -37 159 -33 75 10 101 17 137 36 47 23 117
91 117 111 0 8 -23 24 -50 37 l-51 24 -15 -22 c-39 -56 -176 -82 -243 -48 -32
17 -91 81 -91 99 0 7 -3 22 -6 35 l-6 22 247 0 248 0 -6 69 c-10 116 -50 186
-144 248 -51 34 -61 37 -141 40 -76 4 -93 1 -137 -20z m223 -114 c36 -17 62
-58 62 -98 l0 -25 -165 0 c-182 0 -190 3 -162 57 44 85 162 115 265 66z"/>
<path d="M5495 1408 c-40 -14 -146 -89 -140 -98 3 -5 26 -20 51 -35 43 -25 47
-26 64 -10 26 23 88 44 133 45 39 0 100 -23 124 -46 29 -28 45 -114 21 -114
-6 0 -46 7 -88 16 -123 25 -223 -3 -292 -79 -76 -86 -46 -227 61 -286 90 -50
182 -44 259 17 51 41 72 42 72 2 l0 -30 71 0 71 0 -4 223 c-4 211 -5 224 -28
270 -27 55 -74 95 -138 120 -48 19 -188 22 -237 5z m252 -360 c12 -12 13 -23
4 -55 -22 -80 -80 -123 -169 -123 -59 0 -95 24 -112 75 -14 42 5 86 48 110 36
21 206 15 229 -7z"/>
<path d="M7817 1405 c-83 -31 -170 -120 -199 -204 -20 -60 -15 -178 10 -234
37 -83 81 -134 136 -160 71 -34 85 -38 161 -38 136 -1 244 66 290 179 39 97
42 161 11 259 -23 70 -33 87 -75 126 -65 58 -143 87 -229 86 -37 0 -84 -7
-105 -14z m218 -145 c41 -25 61 -59 76 -130 15 -70 -10 -149 -59 -190 -90 -74
-226 -56 -284 38 -34 55 -35 159 -2 223 34 68 81 91 176 85 36 -3 71 -12 93
-26z"/>
<path d="M5030 1090 l0 -320 80 0 80 0 0 320 0 320 -80 0 -80 0 0 -320z"/>
</g>
</svg>
